mtllib Black.mtl
usemtl Black
vn -1.110719 2.681520 3.926989
v 0.097500 -0.187500 0.006721
vn -1.517261 -2.627996 3.665199
v -0.377500 0.209009 0.006721
vn -2.681518 1.110720 2.356195
v -0.412500 0.290000 0.006721
vn -1.110722 2.681517 2.356194
v -0.392500 0.310000 0.006721
vn 2.681516 -1.110720 2.356195
v 0.412500 -0.190000 0.006721
vn 1.110719 -2.681515 2.356195
v 0.292500 -0.310000 0.006721
vn -1.110722 -2.681514 2.356193
v -0.392500 -0.310000 0.006721
vn -2.627990 1.517282 2.617999
v -0.411160 0.073113 0.006721
vn -3.088067 0.406561 2.879788
v -0.412500 0.068113 0.006721
vn -2.627991 1.517267 3.665204
v -0.373840 0.083113 0.006721
vn -1.517266 2.628000 3.665187
v -0.377500 0.079453 0.006721
vn -0.406551 3.088069 3.403391
v -0.382500 0.078113 0.006721
vn -0.406566 3.088066 2.879784
v -0.402500 0.078113 0.006721
vn -1.517285 2.627991 2.618004
v -0.407500 0.076773 0.006721
vn -3.088072 0.406540 3.403384
v -0.372500 0.088113 0.006721
vn -2.627997 -1.517260 3.665200
v -0.373840 0.205349 0.006721
vn -3.088072 -0.406539 3.403384
v -0.372500 0.200349 0.006721
vn -0.406540 -3.088072 2.879801
v -0.402500 0.210349 0.006721
vn -0.406540 -3.088072 3.403384
v -0.382500 0.210349 0.006721
vn -2.628004 -1.517273 2.618015
v -0.411160 0.215349 0.006721
vn -1.517275 -2.627983 2.617974
v -0.407500 0.211689 0.006721
vn -3.088065 -0.406566 2.879784
v -0.412500 0.220349 0.006721
vn -2.681530 -1.110708 2.356206
v -0.014190 0.172000 0.006721
vn -2.681517 -1.110721 3.926991
v -0.014190 0.182500 0.006721
vn -1.110720 -2.681518 3.926991
v -0.019190 0.187500 0.006721
vn 1.110719 -2.681518 3.926990
v -0.132500 0.187500 0.006721
vn 2.681516 -1.110722 3.926992
v -0.172500 0.147500 0.006721
vn 2.681513 1.110722 3.926998
v -0.172500 -0.147500 0.006721
vn 1.110719 2.681518 3.926990
v -0.132500 -0.187500 0.006721
vn -1.110720 2.681518 3.926991
v -0.019190 -0.187500 0.006721
vn -2.681517 1.110721 3.926991
v -0.014190 -0.182500 0.006721
vn -2.681530 1.110708 2.356205
v -0.014190 -0.172000 0.006721
vn -1.110733 2.681505 2.356183
v -0.009190 -0.167000 0.006721
vn 1.110725 2.681513 2.356191
v 0.020810 -0.167000 0.006721
vn 2.681522 1.110716 2.356198
v 0.025810 -0.172000 0.006721
vn -2.681515 1.110723 3.926993
v 0.107500 -0.177500 0.006721
vn -2.681513 -1.110723 3.926993
v 0.107500 0.177500 0.006721
vn 1.110725 -2.681513 2.356191
v 0.020810 0.167000 0.006721
vn 2.681522 -1.110716 2.356198
v 0.025810 0.172000 0.006721
vn 2.681518 -1.110720 3.926990
v 0.025810 0.182500 0.006721
vn 1.110721 -2.681517 3.926991
v 0.030810 0.187500 0.006721
vn -1.110719 -2.681520 3.926989
v 0.097500 0.187500 0.006721
vn -1.110733 -2.681504 2.356183
v -0.009190 0.167000 0.006721
vn -2.681519 -1.110720 2.356195
v -0.412500 -0.290000 0.006721
vn 2.681516 1.110718 2.356195
v 0.412500 0.190000 0.006721
vn 1.110721 2.681514 2.356195
v 0.292500 0.310000 0.006721
vn 0.000000 0.000000 6.283187
v 0.005810 0.244560 0.006721
vn 2.681518 1.110720 3.926991
v 0.025810 -0.182500 0.006721
vn 1.110721 2.681517 3.926991
v 0.030810 -0.187500 0.006721
vn 0.000000 0.000000 6.283184
v 0.005810 -0.244560 0.006721
vn 0.000000 0.000000 6.283188
v -0.252997 0.262027 0.006721
vn -1.110719 2.681519 -3.926989
v 0.097500 -0.187500 0.000000
vn -1.517261 -2.627997 -3.665199
v -0.377500 0.209009 0.000000
vn -2.681518 1.110720 -2.356195
v -0.412500 0.290000 0.000000
vn -1.110722 2.681514 -2.356194
v -0.392500 0.310000 0.000000
vn 2.681516 -1.110718 -2.356195
v 0.412500 -0.190000 0.000000
vn 1.110721 -2.681514 -2.356195
v 0.292500 -0.310000 0.000000
vn -1.110722 -2.681517 -2.356193
v -0.392500 -0.310000 0.000000
vn -2.627990 1.517282 -2.617999
v -0.411160 0.073113 0.000000
vn -3.088068 0.406561 -2.879788
v -0.412500 0.068113 0.000000
vn -2.627991 1.517267 -3.665204
v -0.373840 0.083113 0.000000
vn -1.517266 2.628000 -3.665187
v -0.377500 0.079453 0.000000
vn -0.406551 3.088069 -3.403391
v -0.382500 0.078113 0.000000
vn -0.406566 3.088066 -2.879784
v -0.402500 0.078113 0.000000
vn -1.517285 2.627991 -2.618004
v -0.407500 0.076773 0.000000
vn -3.088072 0.406540 -3.403384
v -0.372500 0.088113 0.000000
vn -2.627997 -1.517260 -3.665200
v -0.373840 0.205349 0.000000
vn -3.088073 -0.406539 -3.403384
v -0.372500 0.200349 0.000000
vn -0.406540 -3.088072 -2.879801
v -0.402500 0.210349 0.000000
vn -0.406540 -3.088072 -3.403384
v -0.382500 0.210349 0.000000
vn -2.628004 -1.517273 -2.618015
v -0.411160 0.215349 0.000000
vn -1.517275 -2.627983 -2.617974
v -0.407500 0.211689 0.000000
vn -3.088066 -0.406566 -2.879784
v -0.412500 0.220349 0.000000
vn -2.681530 -1.110708 -2.356206
v -0.014190 0.172000 0.000000
vn -2.681517 -1.110721 -3.926991
v -0.014190 0.182500 0.000000
vn -1.110720 -2.681518 -3.926991
v -0.019190 0.187500 0.000000
vn 1.110719 -2.681519 -3.926990
v -0.132500 0.187500 0.000000
vn 2.681512 -1.110721 -3.926992
v -0.172500 0.147500 0.000000
vn 2.681515 1.110721 -3.926998
v -0.172500 -0.147500 0.000000
vn 1.110719 2.681519 -3.926990
v -0.132500 -0.187500 0.000000
vn -1.110720 2.681518 -3.926991
v -0.019190 -0.187500 0.000000
vn -2.681517 1.110721 -3.926991
v -0.014190 -0.182500 0.000000
vn -2.681530 1.110708 -2.356205
v -0.014190 -0.172000 0.000000
vn -1.110733 2.681504 -2.356183
v -0.009190 -0.167000 0.000000
vn 1.110725 2.681513 -2.356191
v 0.020810 -0.167000 0.000000
vn 2.681521 1.110716 -2.356198
v 0.025810 -0.172000 0.000000
vn -2.681513 1.110723 -3.926993
v 0.107500 -0.177500 0.000000
vn -2.681515 -1.110723 -3.926993
v 0.107500 0.177500 0.000000
vn 1.110725 -2.681513 -2.356191
v 0.020810 0.167000 0.000000
vn 2.681522 -1.110716 -2.356198
v 0.025810 0.172000 0.000000
vn 2.681518 -1.110720 -3.926990
v 0.025810 0.182500 0.000000
vn 1.110721 -2.681517 -3.926991
v 0.030810 0.187500 0.000000
vn -1.110719 -2.681519 -3.926989
v 0.097500 0.187500 0.000000
vn -1.110733 -2.681505 -2.356183
v -0.009190 0.167000 0.000000
vn -2.681518 -1.110720 -2.356195
v -0.412500 -0.290000 0.000000
vn 2.681516 1.110720 -2.356195
v 0.412500 0.190000 0.000000
vn 1.110719 2.681515 -2.356195
v 0.292500 0.310000 0.000000
vn 0.000000 0.000000 -6.283187
v 0.005810 0.244560 0.000000
vn 2.681518 1.110720 -3.926991
v 0.025810 -0.182500 0.000000
vn 1.110721 2.681517 -3.926991
v 0.030810 -0.187500 0.000000
vn 0.000000 0.000000 -6.283184
v 0.005810 -0.244560 0.000000
vn 0.000000 0.000000 -6.283188
v -0.252997 0.262027 0.000000
# 102 vertices, 0 vertices normals

f 23//23 47//47 24//24
f 23//23 43//43 47//47
f 24//24 47//47 25//25
f 39//39 40//40 47//47
f 40//40 41//41 47//47
f 38//38 47//47 43//43
f 38//38 39//39 47//47
f 35//35 50//50 48//48
f 34//34 50//50 35//35
f 30//30 50//50 31//31
f 48//48 50//50 49//49
f 32//32 50//50 33//33
f 33//33 50//50 34//34
f 31//31 50//50 32//32
f 3//3 51//51 4//4
f 3//3 22//22 51//51
f 20//20 21//21 51//51
f 18//18 51//51 21//21
f 2//2 51//51 19//19
f 18//18 19//19 51//51
f 2//2 16//16 51//51
f 20//20 51//51 22//22
f 16//16 17//17 51//51
f 10//10 11//11 28//28
f 9//9 44//44 28//28
f 8//8 9//9 28//28
f 10//10 28//28 15//15
f 12//12 13//13 28//28
f 7//7 28//28 44//44
f 13//13 14//14 28//28
f 11//11 12//12 28//28
f 8//8 28//28 14//14
f 29//29 28//28 7//7
f 30//30 29//29 50//50
f 50//50 29//29 7//7
f 7//7 6//6 50//50
f 49//49 50//50 6//6
f 49//49 6//6 1//1
f 36//36 1//1 6//6
f 6//6 5//5 36//36
f 36//36 5//5 37//37
f 28//28 27//27 15//15
f 15//15 27//27 17//17
f 27//27 51//51 17//17
f 27//27 26//26 51//51
f 46//46 4//4 51//51
f 47//47 46//46 51//51
f 26//26 25//25 51//51
f 51//51 25//25 47//47
f 42//42 47//47 41//41
f 47//47 42//42 46//46
f 42//42 37//37 46//46
f 46//46 37//37 45//45
f 5//5 45//45 37//37
f 74//74 75//75 98//98
f 74//74 98//98 94//94
f 75//75 76//76 98//98
f 90//90 98//98 91//91
f 91//91 98//98 92//92
f 89//89 94//94 98//98
f 89//89 98//98 90//90
f 86//86 99//99 101//101
f 85//85 86//86 101//101
f 81//81 82//82 101//101
f 99//99 100//100 101//101
f 83//83 84//84 101//101
f 84//84 85//85 101//101
f 82//82 83//83 101//101
f 54//54 55//55 102//102
f 54//54 102//102 73//73
f 71//71 102//102 72//72
f 69//69 72//72 102//102
f 53//53 70//70 102//102
f 69//69 102//102 70//70
f 53//53 102//102 67//67
f 71//71 73//73 102//102
f 67//67 102//102 68//68
f 61//61 79//79 62//62
f 60//60 79//79 95//95
f 59//59 79//79 60//60
f 61//61 66//66 79//79
f 63//63 79//79 64//64
f 58//58 95//95 79//79
f 64//64 79//79 65//65
f 62//62 79//79 63//63
f 59//59 65//65 79//79
f 80//80 58//58 79//79
f 81//81 101//101 80//80
f 101//101 58//58 80//80
f 58//58 101//101 57//57
f 100//100 57//57 101//101
f 100//100 52//52 57//57
f 87//87 57//57 52//52
f 57//57 87//87 56//56
f 87//87 88//88 56//56
f 79//79 66//66 78//78
f 66//66 68//68 78//78
f 78//78 68//68 102//102
f 78//78 102//102 77//77
f 97//97 102//102 55//55
f 98//98 102//102 97//97
f 77//77 102//102 76//76
f 102//102 98//98 76//76
f 93//93 92//92 98//98
f 98//98 97//97 93//93
f 93//93 97//97 88//88
f 97//97 96//96 88//88
f 56//56 88//88 96//96
f 37//37 87//87 36//36
f 44//44 58//58 7//7
f 6//6 56//56 5//5
f 89//89 39//39 38//38
f 49//49 99//99 48//48
f 4//4 54//54 3//3
f 14//14 59//59 8//8
f 60//60 44//44 9//9
f 1//1 100//100 49//49
f 15//15 61//61 10//10
f 21//21 69//69 18//18
f 5//5 96//96 45//45
f 48//48 86//86 35//35
f 53//53 16//16 2//2
f 69//69 19//19 18//18
f 45//45 97//97 46//46
f 62//62 12//12 11//11
f 67//67 17//17 16//16
f 54//54 22//22 3//3
f 59//59 9//9 8//8
f 29//29 79//79 28//28
f 24//24 74//74 23//23
f 63//63 13//13 12//12
f 78//78 26//26 27//27
f 22//22 71//71 20//20
f 91//91 41//41 40//40
f 28//28 78//78 27//27
f 35//35 85//85 34//34
f 61//61 11//11 10//10
f 77//77 25//25 26//26
f 71//71 21//21 20//20
f 19//19 53//53 2//2
f 30//30 80//80 29//29
f 32//32 82//82 31//31
f 7//7 57//57 6//6
f 17//17 66//66 15//15
f 74//74 43//43 23//23
f 33//33 83//83 32//32
f 64//64 14//14 13//13
f 34//34 84//84 33//33
f 43//43 89//89 38//38
f 36//36 52//52 1//1
f 46//46 55//55 4//4
f 42//42 88//88 37//37
f 92//92 42//42 41//41
f 31//31 81//81 30//30
f 25//25 75//75 24//24
f 90//90 40//40 39//39
f 37//37 88//88 87//87
f 44//44 95//95 58//58
f 6//6 57//57 56//56
f 89//89 90//90 39//39
f 49//49 100//100 99//99
f 4//4 55//55 54//54
f 14//14 65//65 59//59
f 60//60 95//95 44//44
f 1//1 52//52 100//100
f 15//15 66//66 61//61
f 21//21 72//72 69//69
f 5//5 56//56 96//96
f 48//48 99//99 86//86
f 53//53 67//67 16//16
f 69//69 70//70 19//19
f 45//45 96//96 97//97
f 62//62 63//63 12//12
f 67//67 68//68 17//17
f 54//54 73//73 22//22
f 59//59 60//60 9//9
f 29//29 80//80 79//79
f 24//24 75//75 74//74
f 63//63 64//64 13//13
f 78//78 77//77 26//26
f 22//22 73//73 71//71
f 91//91 92//92 41//41
f 28//28 79//79 78//78
f 35//35 86//86 85//85
f 61//61 62//62 11//11
f 77//77 76//76 25//25
f 71//71 72//72 21//21
f 19//19 70//70 53//53
f 30//30 81//81 80//80
f 32//32 83//83 82//82
f 7//7 58//58 57//57
f 17//17 68//68 66//66
f 74//74 94//94 43//43
f 33//33 84//84 83//83
f 64//64 65//65 14//14
f 34//34 85//85 84//84
f 43//43 94//94 89//89
f 36//36 87//87 52//52
f 46//46 97//97 55//55
f 42//42 93//93 88//88
f 92//92 93//93 42//42
f 31//31 82//82 81//81
f 25//25 76//76 75//75
f 90//90 91//91 40//40
# 204 faces, 0 coords texture

# End of File
